<svg width="990" height="198" viewBox="0 0 990 198" xmlns="http://www.w3.org/2000/svg">
<path d="M367.536 51.7027C323.963 51.7027 288.055 84.2237 288.055 124.614C288.055 164.317 323.912 197.423 367.485 197.423C411.059 197.423 446.916 164.317 446.916 124.614C446.941 84.2237 411.084 51.7027 367.536 51.7027ZM367.536 143.816C358.164 143.816 349.888 134.979 349.888 124.512C349.888 114.045 357.528 105.208 367.536 105.208C376.908 105.208 385.185 114.045 385.185 124.512C384.624 134.979 376.908 143.79 367.536 143.79V143.816ZM653.757 51.7027C610.183 51.7027 574.326 84.2492 574.326 124.512C574.326 164.775 610.183 197.321 653.757 197.321C697.33 197.321 733.187 164.749 733.187 124.614C733.187 84.784 697.33 51.7027 653.757 51.7027ZM653.757 143.816C644.385 143.816 636.108 134.979 636.108 124.512C636.108 114.045 643.748 105.208 653.757 105.208C663.128 105.208 671.405 114.045 671.405 124.512C670.87 135.514 663.128 143.79 653.757 143.79V143.816ZM528.027 51.7027C541.421 51.7004 554.567 55.3167 566.075 62.1696V115.65C559.47 109.836 551.142 106.347 542.365 105.718C533.528 105.718 519.751 114.555 519.751 125.021C519.751 135.488 532.993 144.325 542.365 144.325C551.118 143.596 559.416 140.12 566.075 134.393V186.829C554.567 193.682 541.421 197.298 528.027 197.296C518.353 197.477 508.74 195.728 499.749 192.151C490.759 188.573 482.571 183.24 475.665 176.462C468.76 169.685 463.274 161.599 459.53 152.676C455.785 143.754 453.856 134.175 453.856 124.499C453.856 114.823 455.785 105.244 459.53 96.3222C463.274 87.4001 468.76 79.3139 475.665 72.5362C482.571 65.7585 490.759 60.4252 499.749 56.8481C508.74 53.271 518.353 51.5218 528.027 51.7027ZM968.016 99.3255V193.374H906.361V116.21C907.456 100.217 885.988 101.312 885.988 116.21V193.374H823.645V116.21C822.55 104.088 809.867 102.432 804.341 112.899V193.374H740.343V59.4191H804.316V77.0676C828.586 41.7707 867.193 51.1425 881.531 79.818C908.551 43.9609 952.125 48.9269 964.247 79.818C966.763 86.0125 968.044 92.6394 968.016 99.3255ZM282.961 53.8929V118.986C274.124 113.46 245.449 103.553 237.121 134.419V193.374H173.454V58.8589H236.255V77.6024C249.498 60.9472 268.802 53.3071 283.14 53.8929H282.961ZM0.764648 183.977H70.2633V193.909H0.764648V183.977ZM0.764648 165.845H70.2633V175.777H0.764648V165.845ZM0.764648 147.585H70.2633V157.517H0.764648V147.585ZM69.0409 66.0405H0.764648V55.5482H69.0409V66.0405ZM69.0409 84.7331H0.764648V74.2408H69.0409V84.7331ZM128.709 129.453C118.777 138.29 71.8932 139.919 67.5893 139.385H0.764648V129.453H128.709ZM128.149 10.3193H0.815582V0.412782H67.029C67.029 0.412782 110.45 -0.172954 125.602 8.05279C126.641 8.62555 127.572 9.37535 128.353 10.2684L128.149 10.3193ZM149.108 28.528H0.764648V18.5451H139.66C142.894 21.8558 145.823 25.2938 149.134 28.528H149.108ZM159.575 47.2715H0.764648V36.8047H154.635C156.29 40.1154 157.945 43.9609 159.601 47.2715H159.575ZM93.3616 55.5482H161.816C162.904 58.9397 163.462 62.4788 163.471 66.0405H101.689C100.594 62.7298 100.034 58.4005 93.4125 55.5482H93.3616ZM101.638 74.2408H163.471C163.46 77.794 162.902 81.3242 161.816 84.7076H93.4125C95.7632 84.1385 97.8556 82.7985 99.3558 80.9014C100.856 79.0043 101.677 76.6593 101.689 74.2408H101.638ZM0.764648 92.9588H159.601C157.945 96.8297 156.29 100.14 154.635 103.426H0.764648V92.9588ZM0.764648 111.269H149.134C146.498 114.82 143.559 118.135 140.348 121.176H0.764648V111.269ZM978.686 54.2749C976.576 54.2749 974.513 54.9007 972.758 56.0732C971.003 57.2457 969.636 58.9122 968.828 60.862C968.02 62.8118 967.809 64.9573 968.221 67.0271C968.633 69.097 969.649 70.9983 971.141 72.4906C972.633 73.9829 974.535 74.9992 976.605 75.4109C978.674 75.8227 980.82 75.6114 982.77 74.8037C984.72 73.9961 986.386 72.6284 987.559 70.8737C988.731 69.1189 989.357 67.0559 989.357 64.9454C989.357 63.5355 989.078 62.1396 988.535 60.8383C987.992 59.537 987.197 58.3562 986.196 57.364C985.194 56.3718 984.006 55.5879 982.699 55.0577C981.393 54.5275 979.994 54.2614 978.584 54.2749H978.686ZM978.686 73.6296C976.969 73.6296 975.29 73.1203 973.862 72.166C972.434 71.2118 971.321 69.8555 970.663 68.2687C970.006 66.6819 969.834 64.9358 970.169 63.2512C970.504 61.5667 971.331 60.0193 972.546 58.8048C973.76 57.5903 975.308 56.7632 976.992 56.4281C978.677 56.0931 980.423 56.265 982.01 56.9223C983.596 57.5796 984.953 58.6927 985.907 60.1208C986.861 61.5489 987.37 63.2279 987.37 64.9454C987.374 66.0978 987.149 67.2394 986.708 68.304C986.267 69.3687 985.619 70.3353 984.802 71.1477C983.984 71.9602 983.014 72.6024 981.947 73.0372C980.88 73.472 979.737 73.6906 978.584 73.6805L978.686 73.6296ZM983.092 63.4429C983.092 61.3546 981.666 60.1577 979.17 60.1577H974.968V69.5804H977.362V67.0337H979.247L980.647 69.5804H983.296L981.309 66.4734C981.848 66.1932 982.294 65.7624 982.592 65.2333C982.891 64.7043 983.029 64.1 982.99 63.4938L983.092 63.4429ZM979.17 65.0473H977.362V61.9658H979.17C980.214 61.9658 980.8 62.4752 980.8 63.4429C980.822 63.6672 980.79 63.8934 980.707 64.103C980.624 64.3126 980.493 64.4996 980.324 64.6487C980.155 64.7978 979.953 64.9047 979.735 64.9607C979.517 65.0167 979.288 65.0202 979.068 64.9709L979.17 65.0473Z" />
</svg>
